<?xml version="1.0" standalone="no"?><!DOCTYPE svg PUBLIC "-//W3C//DTD SVG 1.1//EN" "http://www.w3.org/Graphics/SVG/1.1/DTD/svg11.dtd"><svg t="1583319589963" class="icon" viewBox="0 0 1024 1024" version="1.1" xmlns="http://www.w3.org/2000/svg" p-id="1083" xmlns:xlink="http://www.w3.org/1999/xlink" width="200" height="200"><defs><style type="text/css"></style></defs><path d="M51.2 51.2m153.6 0l609.28 0q153.6 0 153.6 153.6l0 609.28q0 153.6-153.6 153.6l-609.28 0q-153.6 0-153.6-153.6l0-609.28q0-153.6 153.6-153.6Z" fill="#F19149" opacity=".2" p-id="1084"></path><path d="M803.88608 609.4848h-109.38368a56.2688 56.2688 0 0 1-50.9952-32.44032l-23.60832-50.52416a55.76192 55.76192 0 0 1 12.6208-64.8448 180.31104 180.31104 0 1 0-244.7872-1.77152 55.69024 55.69024 0 0 1 11.58144 64.86528l-25.63072 52.9664a56.27904 56.27904 0 0 1-50.688 31.744h-108.032A56.23808 56.23808 0 0 0 158.72 665.69216v153.6A56.23808 56.23808 0 0 0 214.99392 875.52h588.89216A56.2432 56.2432 0 0 0 860.16 819.31264v-153.6a56.2432 56.2432 0 0 0-56.27392-56.22784z m-195.18464 144.7936H410.18368a29.12768 29.12768 0 1 1 0-58.25536h198.52288a29.12768 29.12768 0 1 1-0.00512 58.25536z" fill="#F19149" p-id="1085"></path></svg>