<?xml version="1.0" standalone="no"?><!DOCTYPE svg PUBLIC "-//W3C//DTD SVG 1.1//EN" "http://www.w3.org/Graphics/SVG/1.1/DTD/svg11.dtd"><svg t="1583319676137" class="icon" viewBox="0 0 1024 1024" version="1.1" xmlns="http://www.w3.org/2000/svg" p-id="1343" xmlns:xlink="http://www.w3.org/1999/xlink" width="200" height="200"><defs><style type="text/css"></style></defs><path d="M51.2 51.2m153.6 0l609.28 0q153.6 0 153.6 153.6l0 609.28q0 153.6-153.6 153.6l-609.28 0q-153.6 0-153.6-153.6l0-609.28q0-153.6 153.6-153.6Z" fill="#F19149" opacity=".2" p-id="1344"></path><path d="M746.74688 855.04h-479.744a29.1328 29.1328 0 1 1 0-58.26048h479.744a29.1328 29.1328 0 1 1 0 58.26048z m19.13344-691.2H247.87968A99.24608 99.24608 0 0 0 148.48 262.93248v347.54048a99.24608 99.24608 0 0 0 99.39968 99.09248h518.00064A99.24608 99.24608 0 0 0 865.28 610.47296V262.93248A99.24608 99.24608 0 0 0 765.88032 163.84z m-41.21088 286.28992c-4.03456 7.8336-41.3184 76.70272-106.35264 81.59232q-3.17952 0.23552-6.33344 0.23552c-58.368 0-107.1104-60.21632-133.71392-93.09696-3.0464-3.7632-5.632-6.9632-7.68-9.32352l-3.34336-3.88096c-15.62624-18.24768-29.12256-34.00192-65.59232-35.22048-24.4224-0.80896-51.31776 41.33376-59.8016 60.69248a29.184 29.184 0 0 1-53.5552-23.32672c4.39808-10.03008 44.98944-97.95584 115.31776-95.5904 62.22336 2.07872 89.81504 34.304 108.07808 55.61856l3.10784 3.61472a444.16 444.16 0 0 1 8.94464 10.84416c16.29696 20.14208 59.6224 73.76896 90.16832 71.34208 27.97568-2.10432 52.4032-37.77536 58.75712-50.10944a29.184 29.184 0 0 1 51.99872 26.60864z" fill="#F19149" p-id="1345"></path></svg>