<?xml version="1.0" standalone="no"?><!DOCTYPE svg PUBLIC "-//W3C//DTD SVG 1.1//EN" "http://www.w3.org/Graphics/SVG/1.1/DTD/svg11.dtd"><svg t="1583319561660" class="icon" viewBox="0 0 1024 1024" version="1.1" xmlns="http://www.w3.org/2000/svg" p-id="953" xmlns:xlink="http://www.w3.org/1999/xlink" width="200" height="200"><defs><style type="text/css"></style></defs><path d="M51.2 51.2m153.6 0l609.28 0q153.6 0 153.6 153.6l0 609.28q0 153.6-153.6 153.6l-609.28 0q-153.6 0-153.6-153.6l0-609.28q0-153.6 153.6-153.6Z" fill="#F19149" opacity=".2" p-id="954"></path><path d="M859.97056 749.27616l-33.32096-491.136A84.6848 84.6848 0 0 0 742.15424 179.2H290.69824a84.6848 84.6848 0 0 0-84.44928 78.3104l-37.02784 491.13088A84.67968 84.67968 0 0 0 253.6704 839.68H775.4752a84.67968 84.67968 0 0 0 84.49536-90.40384zM514.56 511.55456A160.62464 160.62464 0 0 1 354.11968 351.1296a29.76768 29.76768 0 0 1 59.54048 0 100.9152 100.9152 0 0 0 201.8304 0 29.76768 29.76768 0 0 1 59.53536 0A160.62464 160.62464 0 0 1 514.56 511.55456z" fill="#F19149" p-id="955"></path></svg>