<?xml version="1.0" standalone="no"?><!DOCTYPE svg PUBLIC "-//W3C//DTD SVG 1.1//EN" "http://www.w3.org/Graphics/SVG/1.1/DTD/svg11.dtd"><svg t="1583319699178" class="icon" viewBox="0 0 1024 1024" version="1.1" xmlns="http://www.w3.org/2000/svg" p-id="1040" xmlns:xlink="http://www.w3.org/1999/xlink" width="200" height="200"><defs><style type="text/css"></style></defs><path d="M931.328 198.56384A141.824 141.824 0 0 0 790.3744 66.56H233.08288a142.0288 142.0288 0 0 0-140.89216 130.94912l-45.70624 607.6928A141.47584 141.47584 0 0 0 187.392 957.44h644.096a141.4656 141.4656 0 0 0 140.96384-151.18336zM881.03936 862.208a67.03104 67.03104 0 0 1-49.53088 21.5552H187.392a67.87584 67.87584 0 0 1-67.584-73.04704l45.6704-607.6672a68.15232 68.15232 0 0 1 67.584-62.83264h557.312a68.0448 68.0448 0 0 1 67.64032 63.33952l41.13408 607.68768a67.34336 67.34336 0 0 1-18.10944 50.96448z" fill="#556FB5" p-id="1041"></path><path d="M670.76608 279.29088a36.7872 36.7872 0 0 0-36.75136 36.82816 124.5696 124.5696 0 1 1-249.1392 0 36.74624 36.74624 0 1 0-73.4976 0 198.0672 198.0672 0 1 0 396.1344 0 36.7872 36.7872 0 0 0-36.74624-36.82816z" fill="#F19149" p-id="1042"></path></svg>