<?xml version="1.0" standalone="no"?><!DOCTYPE svg PUBLIC "-//W3C//DTD SVG 1.1//EN" "http://www.w3.org/Graphics/SVG/1.1/DTD/svg11.dtd"><svg t="1583319693262" class="icon" viewBox="0 0 1024 1024" version="1.1" xmlns="http://www.w3.org/2000/svg" p-id="910" xmlns:xlink="http://www.w3.org/1999/xlink" width="200" height="200"><defs><style type="text/css"></style></defs><path d="M207.80032 479.96416h272.16384V207.80032A156.77952 156.77952 0 0 0 323.35872 51.2h-115.5584A156.77952 156.77952 0 0 0 51.2 207.80032v115.56352a156.77952 156.77952 0 0 0 156.60032 156.60032zM122.368 207.80032A85.53984 85.53984 0 0 1 207.80032 122.368h115.5584a85.53984 85.53984 0 0 1 85.44768 85.43232v201.00608H207.80032A85.53984 85.53984 0 0 1 122.368 323.36384V207.80032z m693.84192 336.23552h-272.17408v272.16384A156.77952 156.77952 0 0 0 700.63616 972.8h115.56352A156.77952 156.77952 0 0 0 972.8 816.19968v-115.56352a156.77952 156.77952 0 0 0-156.60032-156.60032z m85.42208 272.16384a85.54496 85.54496 0 0 1-85.43232 85.43232h-115.56352a85.53984 85.53984 0 0 1-85.44256-85.44256v-200.99584h201.00608a85.53984 85.53984 0 0 1 85.43232 85.44256v115.56352zM54.20544 700.63616v115.56352A156.77952 156.77952 0 0 0 210.81088 972.8h115.5584a156.77952 156.77952 0 0 0 156.60032-156.60032v-272.16384H210.81088a156.77952 156.77952 0 0 0-156.60544 156.60032z m357.6064 115.56352A85.54496 85.54496 0 0 1 326.36416 901.632H210.81088a85.54496 85.54496 0 0 1-85.44256-85.44256v-115.55328a85.53984 85.53984 0 0 1 85.44256-85.44256h201.00096v201.00608z" fill="#556FB5" p-id="911"></path><path d="M756.9152 54.20544A215.8848 215.8848 0 1 0 972.8 270.09024a216.12544 216.12544 0 0 0-215.8848-215.8848z m0 360.60672A144.72704 144.72704 0 1 1 901.632 270.09024a144.896 144.896 0 0 1-144.7168 144.72704z" fill="#F19149" p-id="912"></path></svg>