<?xml version="1.0" standalone="no"?><!DOCTYPE svg PUBLIC "-//W3C//DTD SVG 1.1//EN" "http://www.w3.org/Graphics/SVG/1.1/DTD/svg11.dtd"><svg t="1583319728538" class="icon" viewBox="0 0 1024 1024" version="1.1" xmlns="http://www.w3.org/2000/svg" p-id="1300" xmlns:xlink="http://www.w3.org/1999/xlink" width="200" height="200"><defs><style type="text/css"></style></defs><path d="M819.89632 81.92H204.10368A153.64096 153.64096 0 0 0 51.2 235.94496v417.47968a153.64096 153.64096 0 0 0 152.90368 154.02496h615.79264A153.64096 153.64096 0 0 0 972.8 653.42464V235.94496A153.64096 153.64096 0 0 0 819.89632 81.92z m83.42528 571.50464a83.82976 83.82976 0 0 1-83.42528 84.03968H204.10368a83.83488 83.83488 0 0 1-83.42528-84.03968V235.94496a83.82976 83.82976 0 0 1 83.42528-84.03968h615.79264a83.82464 83.82464 0 0 1 83.42528 84.03968v417.47968z m-106.17344 223.79008H226.85696a34.9952 34.9952 0 0 0 0 69.98528h570.2912a34.9952 34.9952 0 0 0 0-69.98528z" fill="#556FB5" p-id="1301"></path><path d="M755.87072 413.696a34.63168 34.63168 0 0 0-46.7712 15.13984c-7.552 14.81216-36.59264 57.66656-69.84704 60.19584-36.31104 2.92352-87.81312-61.50656-107.1872-85.69856-4.21888-5.26336-7.80288-9.728-10.63936-13.02528l-3.69152-4.34176c-21.7088-25.6-54.51264-64.31232-128.48128-66.81088-83.58912-2.62656-131.85536 102.77376-137.08288 114.82624a35.08736 35.08736 0 0 0 17.92 46.08 34.6368 34.6368 0 0 0 45.74208-18.05312C325.91872 438.75328 357.888 387.92192 386.92352 389.12c43.35616 1.46432 59.392 20.39296 77.9776 42.31168l3.97312 4.66432c2.43712 2.8416 5.49888 6.656 9.11872 11.20256 31.62624 39.49568 89.5488 111.83616 158.96064 111.82592 2.49344 0 5.00736-0.09216 7.5264-0.2816C721.78688 552.96 766.1056 470.22592 770.90304 460.8a35.11296 35.11296 0 0 0-15.03232-47.104z" fill="#F19149" p-id="1302"></path></svg>