<?xml version="1.0" standalone="no"?><!DOCTYPE svg PUBLIC "-//W3C//DTD SVG 1.1//EN" "http://www.w3.org/Graphics/SVG/1.1/DTD/svg11.dtd"><svg t="1583319709861" class="icon" viewBox="0 0 1024 1024" version="1.1" xmlns="http://www.w3.org/2000/svg" p-id="1170" xmlns:xlink="http://www.w3.org/1999/xlink" width="200" height="200"><defs><style type="text/css"></style></defs><path d="M852.71552 589.23008h-127.52384a31.744 31.744 0 0 1-28.6464-18.24768L669.02016 512A31.32416 31.32416 0 0 1 675.84 475.84256 244.13184 244.13184 0 0 0 511.33952 51.2h-2.62144a244.14208 244.14208 0 0 0-164.43392 422.23616 31.232 31.232 0 0 1 6.144 36.12672L320.55808 571.392a31.7952 31.7952 0 0 1-28.46208 17.85344h-125.952A99.70176 99.70176 0 0 0 66.56 688.81408v179.28192A99.70176 99.70176 0 0 0 166.15936 967.68h686.55616A99.70688 99.70688 0 0 0 952.32 868.096v-179.28192a99.70176 99.70176 0 0 0-99.60448-99.584z m31.61088 278.86592a31.6416 31.6416 0 0 1-31.61088 31.60064H166.15936a31.6416 31.6416 0 0 1-31.61088-31.60064v-179.28192a31.6416 31.6416 0 0 1 31.61088-31.60576h125.952a100.1728 100.1728 0 0 0 89.68192-56.24832L411.648 539.136a98.49344 98.49344 0 0 0-20.8384-115.2768 174.45376 174.45376 0 0 1-55.67488-128.47104A176.78848 176.78848 0 0 1 509.44 119.1936h1.8944a176.1536 176.1536 0 0 1 118.70208 306.41152 98.59072 98.59072 0 0 0-22.62528 115.2l27.52 58.96192a99.97312 99.97312 0 0 0 90.26048 57.47712h127.52384a31.64672 31.64672 0 0 1 31.61088 31.60576v179.24608z" fill="#556FB5" p-id="1171"></path><path d="M625.152 724.21376H393.728a33.99168 33.99168 0 1 0 0 67.97824h231.424a33.99168 33.99168 0 1 0 0-67.97824z" fill="#F19149" p-id="1172"></path></svg>